<svg width="32" height="32" viewBox="0 0 32 32" fill="none" xmlns="http://www.w3.org/2000/svg">
  <rect width="32" height="32" rx="8" fill="#06B6D4"/>
  <path d="M23 12C23 15.3137 20.3137 18 17 18C13.6863 18 11 15.3137 11 12C11 8.68629 13.6863 6 17 6C20.3137 6 23 8.68629 23 12Z" fill="white"/>
  <path d="M8 17C8 15.3431 9.34315 14 11 14H23C24.6569 14 26 15.3431 26 17V24C26 25.6569 24.6569 27 23 27H11C9.34315 27 8 25.6569 8 24V17Z" fill="white"/>
  <path d="M17 22C17 20.8954 17.8954 20 19 20C20.1046 20 21 20.8954 21 22V23C21 24.1046 20.1046 25 19 25C17.8954 25 17 24.1046 17 23V22Z" fill="#06B6D4"/>
</svg>