<?xml version="1.0" standalone="no"?>
<!DOCTYPE svg PUBLIC "-//W3C//DTD SVG 20010904//EN"
 "http://www.w3.org/TR/2001/REC-SVG-20010904/DTD/svg10.dtd">
<svg version="1.0" xmlns="http://www.w3.org/2000/svg"
 width="702.000000pt" height="720.000000pt" viewBox="0 0 702.000000 720.000000"
 preserveAspectRatio="xMidYMid meet">

<g transform="translate(0.000000,720.000000) scale(0.100000,-0.100000)"
fill="#000000" stroke="none">
<path d="M2600 6656 c-142 -31 -323 -174 -387 -306 -57 -117 -66 -155 -71
-305 -5 -158 12 -291 48 -380 5 -11 15 -38 22 -60 17 -53 99 -212 149 -290 37
-57 158 -168 213 -194 62 -30 141 -51 196 -51 103 0 244 68 328 159 48 51 112
144 112 160 0 6 5 11 10 11 6 0 10 8 10 18 0 10 4 22 8 27 8 10 18 40 44 140
18 69 17 470 -1 545 -44 182 -123 312 -255 414 -143 112 -273 146 -426 112z"/>
<path d="M4111 6635 c-85 -30 -145 -67 -219 -139 -45 -43 -122 -145 -122 -161
0 -3 -9 -24 -19 -48 -11 -23 -21 -53 -24 -67 -3 -14 -13 -52 -23 -85 -15 -50
-18 -96 -18 -275 0 -214 3 -242 41 -360 40 -126 211 -327 320 -377 82 -38 206
-44 295 -14 152 51 272 166 376 362 68 129 97 227 113 394 12 120 1 304 -22
376 -28 89 -94 200 -153 259 -119 117 -196 151 -361 157 -98 3 -118 1 -184
-22z"/>
<path d="M1417 5590 c-86 -11 -200 -71 -267 -140 -55 -58 -123 -175 -142 -248
-43 -158 -30 -408 30 -588 25 -76 73 -171 125 -249 52 -79 171 -195 227 -222
177 -85 391 -43 541 107 36 36 72 80 80 98 7 17 17 32 21 32 5 0 8 4 8 10 0 5
12 35 26 66 65 141 81 256 63 436 -18 191 -44 266 -145 423 -59 92 -126 157
-209 201 -11 6 -29 15 -40 21 -94 50 -202 68 -318 53z"/>
<path d="M5355 5576 c-111 -34 -163 -65 -241 -143 -118 -118 -190 -256 -224
-428 -6 -33 -16 -79 -21 -102 -13 -62 -11 -209 5 -283 36 -168 88 -271 186
-371 108 -110 168 -134 330 -134 98 0 124 3 175 24 138 56 268 189 343 353 12
26 22 54 22 62 0 8 4 17 9 20 5 3 11 18 13 33 3 16 12 62 21 103 29 144 29
359 -1 474 -47 177 -204 342 -369 388 -56 16 -202 18 -248 4z"/>
<path d="M3380 4791 c-59 -9 -126 -25 -175 -43 -156 -55 -361 -217 -538 -423
-65 -76 -182 -204 -317 -349 -226 -242 -300 -398 -300 -635 0 -157 49 -279
159 -394 60 -64 169 -140 216 -151 98 -24 257 -26 271 -5 3 5 12 9 20 9 20 0
138 57 189 90 55 36 234 120 258 120 7 0 17 4 22 8 28 24 201 52 318 52 68 0
199 -19 277 -39 48 -12 81 -26 175 -72 81 -39 113 -57 220 -120 73 -43 97 -50
194 -56 128 -8 234 36 349 145 58 55 77 82 109 152 22 47 45 105 52 130 7 25
17 59 22 76 5 17 9 65 9 106 0 123 -48 246 -162 418 -42 62 -126 170 -148 190
-3 3 -46 50 -95 105 -49 55 -110 123 -136 150 -26 28 -59 66 -75 85 -29 37
-253 261 -295 295 -34 28 -116 85 -123 85 -4 0 -25 9 -49 19 -81 38 -151 52
-272 56 -66 2 -145 0 -175 -4z"/>
<path d="M960 3908 c-113 -71 -261 -212 -324 -307 -41 -64 -83 -172 -105 -276
-13 -60 -13 -705 -1 -1156 10 -343 13 -359 91 -480 144 -223 314 -352 599
-454 58 -21 121 -43 140 -51 267 -100 444 -155 590 -186 65 -13 77 -10 61 19
-16 31 -57 145 -69 193 -29 123 -35 177 -35 315 0 123 5 173 28 280 38 185 99
291 254 442 52 51 82 87 78 96 -3 8 -25 17 -49 21 -23 3 -68 10 -98 15 -30 5
-95 17 -145 25 -85 15 -116 21 -232 46 -27 6 -60 13 -76 17 -15 3 -30 9 -33
14 -3 5 -13 9 -23 9 -18 0 -85 25 -168 61 -24 11 -47 19 -53 19 -16 0 -121 49
-231 107 -42 21 -156 139 -195 200 -100 156 -136 304 -100 408 17 50 89 122
153 155 26 13 75 40 108 60 81 48 151 80 174 80 11 0 23 4 26 10 3 5 -52 68
-122 138 -70 71 -142 145 -159 165 -17 21 -35 37 -40 37 -5 0 -25 -10 -44 -22z
m480 -1940 c55 -28 80 -71 87 -146 4 -48 2 -61 -17 -85 -70 -88 -207 -74 -270
28 -35 57 -20 106 53 183 49 50 79 54 147 20z"/>
<path d="M5929 3868 c-52 -49 -216 -168 -233 -168 -3 0 -136 -78 -144 -85 -2
-2 30 -25 70 -51 40 -27 116 -80 168 -119 52 -39 114 -82 136 -94 40 -22 42
-22 67 -6 15 9 29 25 32 36 23 71 65 -74 65 -223 0 -56 -5 -118 -11 -137 -25
-81 -73 -166 -122 -218 -48 -51 -159 -143 -173 -143 -3 0 -25 -13 -49 -30 -24
-16 -47 -30 -51 -30 -4 0 -26 -9 -48 -19 -40 -19 -97 -43 -146 -63 -14 -6 -33
-14 -42 -19 -10 -5 -29 -9 -42 -9 -14 0 -28 -4 -31 -10 -3 -5 -17 -10 -30 -10
-13 0 -27 -4 -30 -10 -3 -5 -21 -10 -40 -10 -19 0 -36 -4 -39 -9 -3 -5 -20
-11 -38 -14 -18 -4 -55 -10 -83 -15 -27 -5 -90 -15 -140 -21 -49 -7 -115 -16
-146 -21 -30 -6 -74 -10 -98 -10 l-43 0 43 -52 c24 -29 67 -80 96 -112 129
-145 223 -432 223 -683 0 -63 -4 -133 -9 -156 -5 -23 -15 -69 -22 -102 -7 -33
-28 -98 -46 -145 -43 -111 -43 -120 3 -120 20 0 53 4 73 9 20 5 70 17 111 26
41 8 134 34 205 56 72 22 148 45 170 52 22 6 45 14 50 17 6 4 75 33 155 65 80
32 149 62 155 67 5 4 15 8 21 8 17 0 128 65 179 104 146 113 272 284 335 452
8 22 12 234 12 750 2 802 4 767 -69 906 -21 40 -62 104 -91 143 -65 86 -225
251 -263 270 -26 14 -28 13 -90 -47z m65 -1799 c55 -37 76 -72 76 -129 0 -35
-6 -47 -45 -85 -42 -43 -48 -45 -100 -45 -34 0 -65 6 -80 16 -39 25 -65 79
-65 133 0 42 5 54 41 95 36 41 45 46 83 46 31 0 56 -9 90 -31z m-516 -106 c48
-36 86 -98 85 -139 -2 -63 -98 -154 -162 -154 -36 0 -84 26 -121 64 -31 33
-35 43 -35 90 2 143 127 218 233 139z"/>
<path d="M3120 2460 c-14 -4 -46 -8 -72 -9 -26 -1 -73 -8 -105 -17 -32 -9 -76
-20 -97 -25 -50 -12 -196 -83 -222 -108 -11 -10 -25 -20 -30 -22 -22 -8 -113
-88 -204 -179 -92 -92 -127 -144 -160 -240 -7 -19 -16 -44 -20 -55 -32 -82
-50 -208 -50 -349 0 -119 4 -152 31 -246 34 -115 134 -266 258 -390 112 -112
167 -149 316 -215 106 -47 115 -49 240 -58 186 -12 1070 -3 1115 13 141 48
265 120 365 212 17 15 33 28 37 28 10 0 97 119 132 180 17 30 29 55 28 55 -2
0 15 35 37 79 23 43 41 87 41 98 0 10 4 26 9 36 23 44 33 133 28 272 -7 197
-28 303 -89 438 -7 15 -15 29 -18 32 -3 3 -12 19 -20 35 -16 31 -174 193 -227
232 -179 131 -276 170 -493 194 -116 14 -795 21 -830 9z m937 -336 c110 -24
218 -102 305 -218 111 -149 147 -254 147 -426 0 -132 -16 -208 -64 -302 -55
-110 -95 -160 -177 -220 -156 -116 -136 -113 -775 -111 -562 2 -594 5 -683 46
-83 38 -185 126 -248 212 -20 28 -39 52 -42 55 -20 19 -58 132 -70 210 -12 80
10 303 31 316 5 3 9 16 9 30 0 13 3 24 8 24 4 0 15 17 24 38 9 20 24 47 34 59
11 11 36 45 58 75 21 30 61 71 90 92 56 41 175 100 246 122 77 23 1000 22
1107 -2z"/>
<path d="M3420 1884 c-14 -9 -36 -31 -48 -50 -22 -33 -22 -40 -22 -353 l0
-319 44 -39 c52 -45 117 -69 147 -53 10 6 31 29 45 52 l26 41 -1 324 c-2 336
-2 340 -45 391 -16 17 -30 22 -70 22 -29 0 -62 -7 -76 -16z"/>
<path d="M2852 1834 c-17 -20 -33 -49 -36 -66 -10 -49 -20 -509 -12 -560 6
-42 13 -52 51 -78 67 -46 150 -35 189 25 22 33 42 484 26 560 -23 103 -73 155
-149 155 -33 0 -44 -6 -69 -36z"/>
<path d="M3955 1858 c-11 -6 -29 -20 -40 -32 -19 -20 -20 -32 -18 -261 3 -302
15 -396 56 -436 58 -59 147 -34 193 53 17 33 20 463 4 549 -19 98 -124 167
-195 127z"/>
</g>
</svg>
